HIERARCHY
ROOT hip
{
  OFFSET 0 0 0
  CHANNELS 6 Xposition Yposition Zposition Zrotation Yrotation Xrotation
  JOINT abdomen
  {
    OFFSET 0 20.6881 -0.73152
    CHANNELS 3 Zrotation Xrotation Yrotation
    JOINT chest
    {
      OFFSET 0 11.7043 -0.48768
      CHANNELS 3 Zrotation Xrotation Yrotation
      JOINT neck
      {
        OFFSET 0 22.1894 -2.19456
        CHANNELS 3 Zrotation Xrotation Yrotation
        JOINT head
        {
          OFFSET -0.24384 7.07133 1.2192
          CHANNELS 3 Zrotation Xrotation Yrotation
          JOINT leftEye
          {
            OFFSET 4.14528 8.04674 8.04672
            CHANNELS 3 Zrotation Xrotation Yrotation
            End Site
            {
              OFFSET 1 0 0
            }
          }
          JOINT rightEye
          {
            OFFSET -3.6576 8.04674 8.04672
            CHANNELS 3 Zrotation Xrotation Yrotation
            End Site
            {
              OFFSET 1 0 0
            }
          }
        }
      }
      JOINT rCollar
      {
        OFFSET -2.68224 19.2634 -4.8768
        CHANNELS 3 Zrotation Xrotation Yrotation
        JOINT rShldr
        {
          OFFSET -8.77824 -1.95073 1.46304
          CHANNELS 3 Zrotation Xrotation Yrotation
          JOINT rForeArm
          {
            OFFSET -28.1742 -1.7115 0.48768
            CHANNELS 3 Zrotation Xrotation Yrotation
            JOINT rHand
            {
              OFFSET -22.5879 0.773209 7.07136
              CHANNELS 3 Zrotation Xrotation Yrotation
              JOINT rThumb1
              {
                OFFSET -1.2192 -0.487915 3.41376
                CHANNELS 3 Zrotation Xrotation Yrotation
                JOINT rThumb2
                {
                  OFFSET -3.37035 -0.52449 3.41376
                  CHANNELS 3 Zrotation Xrotation Yrotation
                  End Site
                  {
                    OFFSET -1.78271 -1.18214 1.43049
                  }
                }
              }
              JOINT rIndex1
              {
                OFFSET -7.75947 0.938293 5.60832
                CHANNELS 3 Zrotation Xrotation Yrotation
                JOINT rIndex2
                {
                  OFFSET -2.54057 -0.884171 1.56538
                  CHANNELS 3 Zrotation Xrotation Yrotation
                  End Site
                  {
                    OFFSET -1.62519 -0.234802 1.16502
                  }
                }
              }
              JOINT rMid1
              {
                OFFSET -8.24714 1.18213 3.41376
                CHANNELS 3 Zrotation Xrotation Yrotation
                JOINT rMid2
                {
                  OFFSET -3.10165 -0.590103 1.0647
                  CHANNELS 3 Zrotation Xrotation Yrotation
                  End Site
                  {
                    OFFSET -2.48547 -0.328903 0.83742
                  }
                }
              }
              JOINT rRing1
              {
                OFFSET -8.82822 0.546677 1.51678
                CHANNELS 3 Zrotation Xrotation Yrotation
                JOINT rRing2
                {
                  OFFSET -2.60934 -0.819778 -0.0198488
                  CHANNELS 3 Zrotation Xrotation Yrotation
                  End Site
                  {
                    OFFSET -2.33842 -0.294052 0.168128
                  }
                }
              }
              JOINT rPinky1
              {
                OFFSET -8.27202 -0.0477905 -0.4584
                CHANNELS 3 Zrotation Xrotation Yrotation
                JOINT rPinky2
                {
                  OFFSET -1.82734 -0.647385 -0.700984
                  CHANNELS 3 Zrotation Xrotation Yrotation
                  End Site
                  {
                    OFFSET -1.69225 -0.51767 -0.607171
                  }
                }
              }
            }
          }
        }
      }
      JOINT lCollar
      {
        OFFSET 2.68224 19.2634 -4.8768
        CHANNELS 3 Zrotation Xrotation Yrotation
        JOINT lShldr
        {
          OFFSET 8.77824 -1.95073 1.46304
          CHANNELS 3 Zrotation Xrotation Yrotation
          JOINT lForeArm
          {
            OFFSET 28.1742 -1.7115 0.48768
            CHANNELS 3 Zrotation Xrotation Yrotation
            JOINT lHand
            {
              OFFSET 22.5879 0.773209 7.07136
              CHANNELS 3 Zrotation Xrotation Yrotation
              JOINT lThumb1
              {
                OFFSET 1.2192 -0.487915 3.41376
                CHANNELS 3 Zrotation Xrotation Yrotation
                JOINT lThumb2
                {
                  OFFSET 3.37035 -0.52449 3.41376
                  CHANNELS 3 Zrotation Xrotation Yrotation
                  End Site
                  {
                    OFFSET 1.78271 -1.18214 1.43049
                  }
                }
              }
              JOINT lIndex1
              {
                OFFSET 7.75947 0.938293 5.60832
                CHANNELS 3 Zrotation Xrotation Yrotation
                JOINT lIndex2
                {
                  OFFSET 2.54057 -0.884171 1.56538
                  CHANNELS 3 Zrotation Xrotation Yrotation
                  End Site
                  {
                    OFFSET 1.62519 -0.234802 1.16502
                  }
                }
              }
              JOINT lMid1
              {
                OFFSET 8.24714 1.18213 3.41376
                CHANNELS 3 Zrotation Xrotation Yrotation
                JOINT lMid2
                {
                  OFFSET 3.10165 -0.590103 1.0647
                  CHANNELS 3 Zrotation Xrotation Yrotation
                  End Site
                  {
                    OFFSET 2.48547 -0.328903 0.83742
                  }
                }
              }
              JOINT lRing1
              {
                OFFSET 8.82822 0.546677 1.51678
                CHANNELS 3 Zrotation Xrotation Yrotation
                JOINT lRing2
                {
                  OFFSET 2.60934 -0.819778 -0.0198488
                  CHANNELS 3 Zrotation Xrotation Yrotation
                  End Site
                  {
                    OFFSET 2.33842 -0.294052 0.168128
                  }
                }
              }
              JOINT lPinky1
              {
                OFFSET 8.27202 -0.0477905 -0.4584
                CHANNELS 3 Zrotation Xrotation Yrotation
                JOINT lPinky2
                {
                  OFFSET 1.82734 -0.647385 -0.700984
                  CHANNELS 3 Zrotation Xrotation Yrotation
                  End Site
                  {
                    OFFSET 1.69225 -0.51767 -0.607171
                  }
                }
              }
            }
          }
        }
      }
    }
  }
  JOINT rButtock
  {
    OFFSET -8.77824 4.35084 1.2192
    CHANNELS 3 Zrotation Xrotation Yrotation
    JOINT rThigh
    {
      OFFSET 0 -1.70687 -2.19456
      CHANNELS 3 Zrotation Xrotation Yrotation
      JOINT rShin
      {
        OFFSET 0 -36.8199 0.73152
        CHANNELS 3 Zrotation Xrotation Yrotation
        JOINT rFoot
        {
          OFFSET 0.73152 -45.1104 -5.12064
          CHANNELS 3 Zrotation Xrotation Yrotation
          End Site
          {
            OFFSET -1.1221 -3.69964 12.103
          }
        }
      }
    }
  }
  JOINT lButtock
  {
    OFFSET 8.77824 4.35084 1.2192
    CHANNELS 3 Zrotation Xrotation Yrotation
    JOINT lThigh
    {
      OFFSET 0 -1.70687 -2.19456
      CHANNELS 3 Zrotation Xrotation Yrotation
      JOINT lShin
      {
        OFFSET 0 -36.8199 0.73152
        CHANNELS 3 Zrotation Xrotation Yrotation
        JOINT lFoot
        {
          OFFSET -0.73152 -45.1104 -5.12064
          CHANNELS 3 Zrotation Xrotation Yrotation
          End Site
          {
            OFFSET 1.1221 -3.69964 12.103
          }
        }
      }
    }
  }
}
MOTION
Frames:	4
Frame Time:	0.00833333
58.8439 85.5269 122.756 0.0 0.0 0.0 2.34099 -0.00222385 0.0637208 0.646591 0.00595038 0.111937 -7.75352e-14 2.38542e-15 1.49088e-16 -2.31013e-13 9.54166e-15 4.42606e-16 -0.0 0.0 0.0 -0.0 0.0 0.0 -3.83661e-14 3.33508e-16 2.98177e-16 -8.11435e-13 7.10655e-15 -1.98785e-16 -1.39731e-11 4.42216e-12 1.55847e-13 -1.60005e-10 -2.91545e-12 9.22361e-14 -3.77412e-10 3.26386e-12 5.62958e-13 -6.51789e-10 5.63594e-12 9.87562e-13 -3.77409e-10 3.26524e-12 5.47055e-13 7.73091 5.47488 0.417314 -3.77415e-10 3.26295e-12 5.69319e-13 2.90554 0.965183 0.102902 -3.77404e-10 3.26424e-12 5.65344e-13 10.2786 0.731801 0.0259123 -3.77417e-10 3.26683e-12 5.82042e-13 2.22167 -0.733487 -0.20892 -3.87649e-14 3.38167e-16 -9.93923e-17 -8.11927e-13 7.10655e-15 -1.39149e-15 -1.39852e-11 -3.94329e-12 1.49486e-13 -1.59973e-10 5.45314e-12 1.08139e-13 -3.77366e-10 3.27396e-12 5.69319e-13 -6.51683e-10 5.65821e-12 1.00506e-12 -3.77367e-10 3.27557e-12 5.91583e-13 -7.73091 5.47488 -0.417314 -3.77366e-10 3.27388e-12 5.78861e-13 -2.90554 0.965183 -0.102902 -3.77369e-10 3.27378e-12 5.76476e-13 -10.2786 0.731801 -0.0259123 -3.77361e-10 3.27677e-12 5.69319e-13 -2.22167 -0.733487 0.20892 -2.03217e-16 0.0 -3.88251e-19 2.21586 -8.02969 -0.231384 0.00606935 8.9736 0.15205 -0.478075 -0.951421 0.0349053 2.03217e-16 0.0 3.88251e-19 1.35243 -1.92788 -0.00536407 0.00846389 -2.07867 0.0694363 0.423479 3.99898 -0.127233
59.8475 84.765 111.131 -178.524 0.0779 179.942 3.05557 1.59903 0.984586 0.257069 -2.60651 0.400178 -1.79631 2.34833 -0.60421 2.73718 -2.38403 -1.08535 -0.0 0.0 0.0 -0.0 0.0 0.0 -7.77897e-14 1.82004e-14 7.77046e-15 21.4725 10.9064 -1.57127 -5.56816 -2.87261 8.29278 0.0495859 4.94378 0.6855 -8.32181e-11 -6.46485e-10 3.2803e-10 -1.39287e-10 -1.11662e-09 5.63873e-10 -8.32153e-11 -6.46484e-10 3.2802e-10 7.73091 5.47488 0.417314 -8.32207e-11 -6.46485e-10 3.28034e-10 2.90554 0.965183 0.102902 -8.3211e-11 -6.46484e-10 3.28033e-10 10.2786 0.731801 0.0259123 -8.32221e-11 -6.46482e-10 3.28047e-10 2.22167 -0.733487 -0.20892 -7.81193e-14 1.82052e-14 7.43191e-15 -21.5274 7.7656 2.27759 5.26846 -2.64781 -7.93436 -0.0274731 3.68257 -0.513712 -2.03783e-11 4.87763e-10 3.66462e-10 -3.11755e-11 8.45163e-10 6.30543e-10 -2.0379e-11 4.87766e-10 3.66481e-10 -7.73091 5.47488 -0.417314 -2.03773e-11 4.87764e-10 3.66471e-10 -2.90554 0.965183 -0.102902 -2.03814e-11 4.87764e-10 3.66467e-10 -10.2786 0.731801 -0.0259123 -2.03733e-11 4.87767e-10 3.66459e-10 -2.22167 -0.733487 0.20892 -2.03217e-16 0.0 -3.88251e-19 3.77376 -7.98136 3.85433 0.0300181 12.4237 0.227719 -1.32788 -4.19324 -8.04572 2.03217e-16 0.0 3.88251e-19 1.2201 -4.08863 -5.79066 -0.00632185 4.14836 -0.0933618 1.14384 0.422801 6.74241
59.8516 84.7629 111.131 -178.522 0.1165 179.941 3.75501 3.28419 1.95814 -0.126276 -5.3671 0.707105 -3.63663 4.82972 -1.24247 5.52545 -4.88388 -2.23636 -0.0 0.0 0.0 -0.0 0.0 0.0 -1.20523e-13 3.71677e-14 1.62817e-14 44.8886 22.3996 -3.43851 -10.553 -5.70274 17.1155 -0.0285581 10.1788 1.4289 2.24081e-10 -1.34664e-09 6.82264e-10 3.96208e-10 -2.32617e-09 1.17291e-09 2.24083e-10 -1.34664e-09 6.82259e-10 7.73091 5.47488 0.417314 2.24079e-10 -1.34664e-09 6.82265e-10 2.90554 0.965183 0.102902 2.24087e-10 -1.34664e-09 6.82266e-10 10.2786 0.731801 0.0259123 2.24079e-10 -1.34664e-09 6.82278e-10 2.22167 -0.733487 -0.20892 -1.20779e-13 3.71728e-14 1.60084e-14 -44.9948 15.9479 4.8252 10.0462 -5.27577 -16.3726 0.0159939 7.5957 -1.06685 3.58421e-10 1.00723e-09 7.60208e-10 6.27312e-10 1.74532e-09 1.30803e-09 3.58421e-10 1.00724e-09 7.60223e-10 -7.73091 5.47488 -0.417314 3.58423e-10 1.00723e-09 7.60216e-10 -2.90554 0.965183 -0.102902 3.58417e-10 1.00723e-09 7.60211e-10 -10.2786 0.731801 -0.0259123 3.58425e-10 1.00724e-09 7.60202e-10 -2.22167 -0.733487 0.20892 -2.03217e-16 0.0 -3.88251e-19 5.41321 -7.87561 8.17676 0.044918 16.0675 0.310723 -3.21417 -7.38859 -16.6842 2.03217e-16 0.0 3.88251e-19 0.602622 -6.26379 -11.9562 0.0170059 10.7272 -0.269759 2.83242 -3.25387 14.0398
59.8566 84.7708 111.113 -178.579 0.3092 179.847 4.32991 4.79639 2.8351 -0.442436 -7.83049 0.9846 -5.2394 7.04183 -1.82488 7.93893 -7.14178 -3.2787 -0.0 0.0 0.0 -0.0 0.0 0.0 -1.56637e-13 5.39341e-14 2.2715e-14 66.4946 32.6112 -5.4974 -14.2773 -7.89719 25.1011 -0.216446 14.8227 2.11941 5.0517e-10 -1.94598e-09 9.82965e-10 8.85719e-10 -3.36112e-09 1.68964e-09 5.05171e-10 -1.94598e-09 9.82965e-10 7.73091 5.47488 0.417314 5.05167e-10 -1.94598e-09 9.82964e-10 2.90554 0.965183 0.102902 5.05175e-10 -1.94598e-09 9.82967e-10 10.2786 0.731801 0.0259123 5.05169e-10 -1.94598e-09 9.82977e-10 2.22167 -0.733487 -0.20892 -1.56828e-13 5.39393e-14 2.24945e-14 -66.5671 23.1429 7.3657 13.6607 -7.3354 -23.986 0.118843 11.0441 -1.56698 6.93598e-10 1.45674e-09 1.09825e-09 1.20984e-09 2.52417e-09 1.88962e-09 6.93597e-10 1.45675e-09 1.09826e-09 -7.73091 5.47488 -0.417314 6.936e-10 1.45675e-09 1.09825e-09 -2.90554 0.965183 -0.102902 6.93594e-10 1.45675e-09 1.09825e-09 -10.2786 0.731801 -0.0259123 6.93602e-10 1.45675e-09 1.09824e-09 -2.22167 -0.733487 0.20892 -2.03217e-16 0.0 -3.88251e-19 6.86523 -7.76624 12.0209 0.0488393 19.3237 0.388679 -5.71163 -9.84684 -24.5265 2.03217e-16 0.0 3.88251e-19 -0.340967 -8.08613 -17.4964 0.0735515 16.602 -0.436322 5.11329 -6.29415 20.6104
